<!DOCTYPE svg PUBLIC "-//W3C//DTD SVG 1.1//EN" "https://www.w3.org/Graphics/SVG/1.1/DTD/svg11.dtd"><svg xmlns="http://www.w3.org/2000/svg" class="sc-bDpDS hIXa-DQ graph" data-testid="graph" role="img" aria-labelledby="polymath-graph-title" width="851" height="1286"><title id="polymath-graph-title">Workflow Studio State Machine Graph</title><g transform="translate(12,12)" class="new-look-graph"><g class="nodes"><g class="node-container" transform="translate(409,22)"><g><circle class="sc-uVWWZ cEWWbE shape" r="22"/><text class="sc-hknOHE ddMZyx label"><tspan xml:space="preserve" text-anchor="middle" alignment-baseline="central">Start</tspan></text></g></g><g class="node-container" transform="translate(409,103.5)"><g class="sc-dAbbOL ceTgQa node state Task" data-testid="graph-Check for updates" data-state-id="Check for updates" data-state-type="Task"><g class="new-look-state-node "><rect x="-120" y="-24.5" width="240" height="49" rx="3" ry="3"/><g class="handle" transform="translate(-120,-24.5)"><path d="M5,16 L5,34 M8,16 L8,34"/></g><g class="icon" transform="translate(-104,-24)"><rect fill="var(--color-background-container-header-9ekpze, #fafafa)" x="0.0361026108" y="0.0181291967" width="48" height="48"/><line x1="47.5" y1="0.49122807" x2="47.5" y2="47.5" stroke="var(--color-board-placeholder-active-e71qda, #d5dbdb)" stroke-linecap="square"/><line x1="0.5" y1="0.49122807" x2="0.5" y2="47.5" stroke="var(--color-board-placeholder-active-e71qda, #d5dbdb)" stroke-linecap="square"/><use href="#icon-service-lam" aria-hidden="true"><title>Lambda</title></use></g><g class="text-lines" transform="translate(-48,-24.5)"><text transform="translate(0,17)" class="line1"><tspan xml:space="preserve" text-anchor="start">Lambda: Invoke</tspan></text><text transform="translate(0,35.5)" class="line2 label"><tspan xml:space="preserve" text-anchor="start">Check for updates</tspan></text></g></g></g></g><g class="node-container" transform="translate(409,187.5)"><g class="sc-dAbbOL ceTgQa node state Choice" data-testid="graph-Choice" data-state-id="Choice" data-state-type="Choice"><g class="new-look-state-node "><rect x="-120" y="-24.5" width="240" height="49" rx="3" ry="3"/><g class="handle" transform="translate(-120,-24.5)"><path d="M5,16 L5,34 M8,16 L8,34"/></g><g class="icon" transform="translate(-104,-24)"><rect fill="var(--color-background-container-header-9ekpze, #fafafa)" x="0.0361026108" y="0.0181291967" width="48" height="48"/><line x1="47.5" y1="0.49122807" x2="47.5" y2="47.5" stroke="var(--color-board-placeholder-active-e71qda, #d5dbdb)" stroke-linecap="square"/><line x1="0.5" y1="0.49122807" x2="0.5" y2="47.5" stroke="var(--color-board-placeholder-active-e71qda, #d5dbdb)" stroke-linecap="square"/><use href="#icon-flow-choice"/></g><g class="text-lines" transform="translate(-48,-24.5)"><text transform="translate(0,17)" class="line1"><tspan xml:space="preserve" text-anchor="start">Choice state</tspan></text><text transform="translate(0,35.5)" class="line2 label"><tspan xml:space="preserve" text-anchor="start">Choice</tspan></text></g></g></g></g><g class="node-container" transform="translate(120,1158)"><g class="sc-dAbbOL ceTgQa node state Pass" data-testid="graph-No updates" data-state-id="No updates" data-state-type="Pass"><g class="new-look-state-node "><rect x="-120" y="-24.5" width="240" height="49" rx="3" ry="3"/><g class="handle" transform="translate(-120,-24.5)"><path d="M5,16 L5,34 M8,16 L8,34"/></g><g class="icon" transform="translate(-104,-24)"><rect fill="var(--color-background-container-header-9ekpze, #fafafa)" x="0.0361026108" y="0.0181291967" width="48" height="48"/><line x1="47.5" y1="0.49122807" x2="47.5" y2="47.5" stroke="var(--color-board-placeholder-active-e71qda, #d5dbdb)" stroke-linecap="square"/><line x1="0.5" y1="0.49122807" x2="0.5" y2="47.5" stroke="var(--color-board-placeholder-active-e71qda, #d5dbdb)" stroke-linecap="square"/><use href="#icon-flow-pass"/></g><g class="text-lines" transform="translate(-48,-24.5)"><text transform="translate(0,17)" class="line1"><tspan xml:space="preserve" text-anchor="start">Pass state</tspan></text><text transform="translate(0,35.5)" class="line2 label"><tspan xml:space="preserve" text-anchor="start">No updates</tspan></text></g></g></g></g><g class="node-container" transform="translate(549,288)"><g class="sc-dAbbOL ceTgQa node state Task" data-testid="graph-Create Spark App" data-state-id="Create Spark App" data-state-type="Task"><g class="new-look-state-node "><rect x="-134" y="-24.5" width="268" height="49" rx="3" ry="3"/><g class="handle" transform="translate(-134,-24.5)"><path d="M5,16 L5,34 M8,16 L8,34"/></g><g class="icon" transform="translate(-118,-24)"><rect fill="var(--color-background-container-header-9ekpze, #fafafa)" x="0.0361026108" y="0.0181291967" width="48" height="48"/><line x1="47.5" y1="0.49122807" x2="47.5" y2="47.5" stroke="var(--color-board-placeholder-active-e71qda, #d5dbdb)" stroke-linecap="square"/><line x1="0.5" y1="0.49122807" x2="0.5" y2="47.5" stroke="var(--color-board-placeholder-active-e71qda, #d5dbdb)" stroke-linecap="square"/><use href="#icon-service-emr" aria-hidden="true"><title>EMR</title></use></g><g class="text-lines" transform="translate(-62,-24.5)"><text transform="translate(0,17)" class="line1"><tspan xml:space="preserve" text-anchor="start">EMR Serverless: CreateApplication</tspan></text><text transform="translate(0,35.5)" class="line2 label"><tspan xml:space="preserve" text-anchor="start">Create Spark App</tspan></text></g></g></g></g><g class="node-container" transform="translate(400,1239.5)"><g><circle class="sc-uVWWZ cEWWbE shape" r="22"/><text class="sc-hknOHE ddMZyx label"><tspan xml:space="preserve" text-anchor="middle" alignment-baseline="central">End</tspan></text></g></g><g class="node-container" transform="translate(549,372)"><g class="sc-dAbbOL ceTgQa node state Task" data-testid="graph-Start Spark App" data-state-id="Start Spark App" data-state-type="Task"><g class="new-look-state-node "><rect x="-130" y="-24.5" width="260" height="49" rx="3" ry="3"/><g class="handle" transform="translate(-130,-24.5)"><path d="M5,16 L5,34 M8,16 L8,34"/></g><g class="icon" transform="translate(-114,-24)"><rect fill="var(--color-background-container-header-9ekpze, #fafafa)" x="0.0361026108" y="0.0181291967" width="48" height="48"/><line x1="47.5" y1="0.49122807" x2="47.5" y2="47.5" stroke="var(--color-board-placeholder-active-e71qda, #d5dbdb)" stroke-linecap="square"/><line x1="0.5" y1="0.49122807" x2="0.5" y2="47.5" stroke="var(--color-board-placeholder-active-e71qda, #d5dbdb)" stroke-linecap="square"/><use href="#icon-service-emr" aria-hidden="true"><title>EMR</title></use></g><g class="text-lines" transform="translate(-58,-24.5)"><text transform="translate(0,17)" class="line1"><tspan xml:space="preserve" text-anchor="start">EMR Serverless: StartApplication</tspan></text><text transform="translate(0,35.5)" class="line2 label"><tspan xml:space="preserve" text-anchor="start">Start Spark App</tspan></text></g></g></g></g><g class="node-container" transform="translate(549,723)"><g class="sc-dAbbOL ceTgQa node state container Parallel" data-testid="graph-Parallel" data-state-id="Parallel" data-state-type="Parallel"><g class="new-look-state-node "><g class="bounding-box" transform="translate(0,5)"><rect class="sc-Nxspf dBHRPJ shape" rx="7" ry="7" x="-220" y="-275" width="440" height="545"/><g class="content" transform="translate(-220,-275)"><g class="branch" transform="translate(20,89)"><g class="branchInsertArea" data-insertion-index="0" data-parent-state-id="Parallel" id="Parallel:0" x="-20" y="0" width="20" height="436"><rect x="-20" y="0" width="20" height="436" stroke="none" fill="none"/><path d="M-10,0 l0,436" stroke="none" fill="none"/></g><g transform=""><g class="nodes"><g class="node-container" transform="translate(120,24.5)"><g class="sc-dAbbOL ceTgQa node state Task" data-testid="graph-User ETL Job" data-state-id="User ETL Job" data-state-type="Task"><g class="new-look-state-node "><rect x="-120" y="-24.5" width="240" height="49" rx="3" ry="3"/><g class="handle" transform="translate(-120,-24.5)"><path d="M5,16 L5,34 M8,16 L8,34"/></g><g class="icon" transform="translate(-104,-24)"><rect fill="var(--color-background-container-header-9ekpze, #fafafa)" x="0.0361026108" y="0.0181291967" width="48" height="48"/><line x1="47.5" y1="0.49122807" x2="47.5" y2="47.5" stroke="var(--color-board-placeholder-active-e71qda, #d5dbdb)" stroke-linecap="square"/><line x1="0.5" y1="0.49122807" x2="0.5" y2="47.5" stroke="var(--color-board-placeholder-active-e71qda, #d5dbdb)" stroke-linecap="square"/><use href="#icon-service-emr" aria-hidden="true"><title>EMR</title></use></g><g class="text-lines" transform="translate(-48,-24.5)"><text transform="translate(0,17)" class="line1"><tspan xml:space="preserve" text-anchor="start">EMR Serverless: StartJobRun</tspan></text><text transform="translate(0,35.5)" class="line2 label"><tspan xml:space="preserve" text-anchor="start">User ETL Job</tspan></text></g></g></g></g><g class="node-container" transform="translate(120,108.5)"><g class="sc-dAbbOL ceTgQa node state Task" data-testid="graph-Product ETL Job" data-state-id="Product ETL Job" data-state-type="Task"><g class="new-look-state-node "><rect x="-120" y="-24.5" width="240" height="49" rx="3" ry="3"/><g class="handle" transform="translate(-120,-24.5)"><path d="M5,16 L5,34 M8,16 L8,34"/></g><g class="icon" transform="translate(-104,-24)"><rect fill="var(--color-background-container-header-9ekpze, #fafafa)" x="0.0361026108" y="0.0181291967" width="48" height="48"/><line x1="47.5" y1="0.49122807" x2="47.5" y2="47.5" stroke="var(--color-board-placeholder-active-e71qda, #d5dbdb)" stroke-linecap="square"/><line x1="0.5" y1="0.49122807" x2="0.5" y2="47.5" stroke="var(--color-board-placeholder-active-e71qda, #d5dbdb)" stroke-linecap="square"/><use href="#icon-service-emr" aria-hidden="true"><title>EMR</title></use></g><g class="text-lines" transform="translate(-48,-24.5)"><text transform="translate(0,17)" class="line1"><tspan xml:space="preserve" text-anchor="start">EMR Serverless: StartJobRun</tspan></text><text transform="translate(0,35.5)" class="line2 label"><tspan xml:space="preserve" text-anchor="start">Product ETL Job</tspan></text></g></g></g></g><g class="node-container" transform="translate(120,192.5)"><g class="sc-dAbbOL ceTgQa node state Task" data-testid="graph-Order ETL Job" data-state-id="Order ETL Job" data-state-type="Task"><g class="new-look-state-node "><rect x="-120" y="-24.5" width="240" height="49" rx="3" ry="3"/><g class="handle" transform="translate(-120,-24.5)"><path d="M5,16 L5,34 M8,16 L8,34"/></g><g class="icon" transform="translate(-104,-24)"><rect fill="var(--color-background-container-header-9ekpze, #fafafa)" x="0.0361026108" y="0.0181291967" width="48" height="48"/><line x1="47.5" y1="0.49122807" x2="47.5" y2="47.5" stroke="var(--color-board-placeholder-active-e71qda, #d5dbdb)" stroke-linecap="square"/><line x1="0.5" y1="0.49122807" x2="0.5" y2="47.5" stroke="var(--color-board-placeholder-active-e71qda, #d5dbdb)" stroke-linecap="square"/><use href="#icon-service-emr" aria-hidden="true"><title>EMR</title></use></g><g class="text-lines" transform="translate(-48,-24.5)"><text transform="translate(0,17)" class="line1"><tspan xml:space="preserve" text-anchor="start">EMR Serverless: StartJobRun</tspan></text><text transform="translate(0,35.5)" class="line2 label"><tspan xml:space="preserve" text-anchor="start">Order ETL Job</tspan></text></g></g></g></g><g class="node-container" transform="translate(120,276.5)"><g class="sc-dAbbOL ceTgQa node state Task" data-testid="graph-Calendar ETL Job" data-state-id="Calendar ETL Job" data-state-type="Task"><g class="new-look-state-node "><rect x="-120" y="-24.5" width="240" height="49" rx="3" ry="3"/><g class="handle" transform="translate(-120,-24.5)"><path d="M5,16 L5,34 M8,16 L8,34"/></g><g class="icon" transform="translate(-104,-24)"><rect fill="var(--color-background-container-header-9ekpze, #fafafa)" x="0.0361026108" y="0.0181291967" width="48" height="48"/><line x1="47.5" y1="0.49122807" x2="47.5" y2="47.5" stroke="var(--color-board-placeholder-active-e71qda, #d5dbdb)" stroke-linecap="square"/><line x1="0.5" y1="0.49122807" x2="0.5" y2="47.5" stroke="var(--color-board-placeholder-active-e71qda, #d5dbdb)" stroke-linecap="square"/><use href="#icon-service-emr" aria-hidden="true"><title>EMR</title></use></g><g class="text-lines" transform="translate(-48,-24.5)"><text transform="translate(0,17)" class="line1"><tspan xml:space="preserve" text-anchor="start">EMR Serverless: StartJobRun</tspan></text><text transform="translate(0,35.5)" class="line2 label"><tspan xml:space="preserve" text-anchor="start">Calendar ETL Job</tspan></text></g></g></g></g><g class="node-container" transform="translate(120,360.5)"><g class="sc-dAbbOL ceTgQa node state Task" data-testid="graph-Commit ETL main" data-state-id="Commit ETL main" data-state-type="Task"><g class="new-look-state-node "><rect x="-120" y="-24.5" width="240" height="49" rx="3" ry="3"/><g class="handle" transform="translate(-120,-24.5)"><path d="M5,16 L5,34 M8,16 L8,34"/></g><g class="icon" transform="translate(-104,-24)"><rect fill="var(--color-background-container-header-9ekpze, #fafafa)" x="0.0361026108" y="0.0181291967" width="48" height="48"/><line x1="47.5" y1="0.49122807" x2="47.5" y2="47.5" stroke="var(--color-board-placeholder-active-e71qda, #d5dbdb)" stroke-linecap="square"/><line x1="0.5" y1="0.49122807" x2="0.5" y2="47.5" stroke="var(--color-board-placeholder-active-e71qda, #d5dbdb)" stroke-linecap="square"/><use href="#icon-service-lam" aria-hidden="true"><title>Lambda</title></use></g><g class="text-lines" transform="translate(-48,-24.5)"><text transform="translate(0,17)" class="line1"><tspan xml:space="preserve" text-anchor="start">Lambda: Invoke</tspan></text><text transform="translate(0,35.5)" class="line2 label"><tspan xml:space="preserve" text-anchor="start">Commit ETL main</tspan></text></g></g></g></g><g class="node-container" transform="translate(120,428)"><g><circle class="sc-hCPjZK cIxJdF shape" r="8"/></g></g></g><g class="edges"><g class="sc-feUZmu eldnFl edge"><path id="state-User ETL Job:state-Product ETL Job:normal" d="M120,49L120,51.916666666666664C120,54.833333333333336,120,60.666666666666664,120,66.5C120,72.33333333333333,120,78.16666666666667,120,81.08333333333333L120,84" marker-end="url(#arrowhead)" fill="none"/></g><g class="sc-feUZmu eldnFl edge"><path id="state-Product ETL Job:state-Order ETL Job:normal" d="M120,133L120,135.91666666666666C120,138.83333333333334,120,144.66666666666666,120,150.5C120,156.33333333333334,120,162.16666666666666,120,165.08333333333334L120,168" marker-end="url(#arrowhead)" fill="none"/></g><g class="sc-feUZmu eldnFl edge"><path id="state-Order ETL Job:state-Calendar ETL Job:normal" d="M120,217L120,219.91666666666666C120,222.83333333333334,120,228.66666666666666,120,234.5C120,240.33333333333334,120,246.16666666666666,120,249.08333333333334L120,252" marker-end="url(#arrowhead)" fill="none"/></g><g class="sc-feUZmu eldnFl edge"><path id="state-Calendar ETL Job:state-Commit ETL main:normal" d="M120,301L120,303.9166666666667C120,306.8333333333333,120,312.6666666666667,120,318.5C120,324.3333333333333,120,330.1666666666667,120,333.0833333333333L120,336" marker-end="url(#arrowhead)" fill="none"/></g><g class="sc-feUZmu eldnFl edge"><path id="state-Commit ETL main:end:normal" d="M120,385L120,387.9166666666667C120,390.8333333333333,120,396.6666666666667,120,402.5C120,408.3333333333333,120,414.1666666666667,120,417.0833333333333L120,420" marker-end="url(#arrowhead)" fill="none"/></g></g></g><g class="branchInsertArea" data-insertion-index="1" data-parent-state-id="Parallel" id="Parallel:1" x="240" y="0" width="20" height="436"><rect x="240" y="0" width="20" height="436" stroke="none" fill="none"/><path d="M250,0 l0,436" stroke="none" fill="none"/></g></g><g class="branch" transform="translate(280,89)"><g transform=""><g class="nodes"><g class="node-container" transform="translate(70,24.5)"><g class="sc-dAbbOL ceTgQa node state Placeholder" data-testid="graph-Placeholder" data-state-id="Placeholder" data-state-type="Placeholder"><rect class="sc-ikkxIA kTUKTE shape" rx="5" ry="5" x="-70" y="-24.5" width="140" height="49"/><text class="sc-bbSZdi lpuJjw label"><tspan xml:space="preserve" text-anchor="middle" alignment-baseline="central">Drop state here</tspan></text></g></g></g><g class="edges"/></g><g class="branchInsertArea" data-insertion-index="2" data-parent-state-id="Parallel" id="Parallel:2" x="140" y="0" width="20" height="436"><rect x="140" y="0" width="20" height="436" stroke="none" fill="none"/><path d="M150,0 l0,436" stroke="none" fill="none"/></g></g><g class="sc-feUZmu eldnFl"><path id="Parallel-User ETL Job" class="path starting-connection" d="M220,44L220,47.75C220,51.5,220,59,206.66666666666666,62.75C193.33333333333334,66.5,166.66666666666666,66.5,153.33333333333334,70.25C140,74,140,81.5,140,85.25L140,89" fill="none"/></g><g class="sc-feUZmu eldnFl"><path id="Parallel-Placeholder" class="path starting-connection" d="M220,44L220,47.75C220,51.5,220,59,241.66666666666666,62.75C263.3333333333333,66.5,306.6666666666667,66.5,328.3333333333333,70.25C350,74,350,81.5,350,85.25L350,89" fill="none"/></g></g></g><g class="new-look-state-node "><rect x="-120" y="-275" width="240" height="49" rx="3" ry="3"/><g class="handle" transform="translate(-120,-275)"><path d="M5,16 L5,34 M8,16 L8,34"/></g><g class="icon" transform="translate(-104,-274.5)"><rect fill="var(--color-background-container-header-9ekpze, #fafafa)" x="0.0361026108" y="0.0181291967" width="48" height="48"/><line x1="47.5" y1="0.49122807" x2="47.5" y2="47.5" stroke="var(--color-board-placeholder-active-e71qda, #d5dbdb)" stroke-linecap="square"/><line x1="0.5" y1="0.49122807" x2="0.5" y2="47.5" stroke="var(--color-board-placeholder-active-e71qda, #d5dbdb)" stroke-linecap="square"/><use href="#icon-flow-parallel"/></g><g class="text-lines" transform="translate(-48,-275)"><text transform="translate(0,17)" class="line1"><tspan xml:space="preserve" text-anchor="start">Parallel state</tspan></text><text transform="translate(0,35.5)" class="line2 label"><tspan xml:space="preserve" text-anchor="start">Parallel</tspan></text></g></g></g></g></g><g class="node-container" transform="translate(698,1074)"><g class="sc-dAbbOL ceTgQa node state Task" data-testid="graph-Stop Spark App (Success)" data-state-id="Stop Spark App (Success)" data-state-type="Task"><g class="new-look-state-node "><rect x="-129" y="-24.5" width="258" height="49" rx="3" ry="3"/><g class="handle" transform="translate(-129,-24.5)"><path d="M5,16 L5,34 M8,16 L8,34"/></g><g class="icon" transform="translate(-113,-24)"><rect fill="var(--color-background-container-header-9ekpze, #fafafa)" x="0.0361026108" y="0.0181291967" width="48" height="48"/><line x1="47.5" y1="0.49122807" x2="47.5" y2="47.5" stroke="var(--color-board-placeholder-active-e71qda, #d5dbdb)" stroke-linecap="square"/><line x1="0.5" y1="0.49122807" x2="0.5" y2="47.5" stroke="var(--color-board-placeholder-active-e71qda, #d5dbdb)" stroke-linecap="square"/><use href="#icon-service-emr" aria-hidden="true"><title>EMR</title></use></g><g class="text-lines" transform="translate(-57,-24.5)"><text transform="translate(0,17)" class="line1"><tspan xml:space="preserve" text-anchor="start">EMR Serverless: StopApplication</tspan></text><text transform="translate(0,35.5)" class="line2 label"><tspan xml:space="preserve" text-anchor="start">Stop Spark App (Success)</tspan></text></g></g></g></g><g class="node-container" transform="translate(400,1074)"><g class="sc-dAbbOL ceTgQa node state Task" data-testid="graph-Stop Spark App" data-state-id="Stop Spark App" data-state-type="Task"><g class="new-look-state-node "><rect x="-129" y="-24.5" width="258" height="49" rx="3" ry="3"/><g class="handle" transform="translate(-129,-24.5)"><path d="M5,16 L5,34 M8,16 L8,34"/></g><g class="icon" transform="translate(-113,-24)"><rect fill="var(--color-background-container-header-9ekpze, #fafafa)" x="0.0361026108" y="0.0181291967" width="48" height="48"/><line x1="47.5" y1="0.49122807" x2="47.5" y2="47.5" stroke="var(--color-board-placeholder-active-e71qda, #d5dbdb)" stroke-linecap="square"/><line x1="0.5" y1="0.49122807" x2="0.5" y2="47.5" stroke="var(--color-board-placeholder-active-e71qda, #d5dbdb)" stroke-linecap="square"/><use href="#icon-service-emr" aria-hidden="true"><title>EMR</title></use></g><g class="text-lines" transform="translate(-57,-24.5)"><text transform="translate(0,17)" class="line1"><tspan xml:space="preserve" text-anchor="start">EMR Serverless: StopApplication</tspan></text><text transform="translate(0,35.5)" class="line2 label"><tspan xml:space="preserve" text-anchor="start">Stop Spark App</tspan></text></g></g></g></g><g class="node-container" transform="translate(400,1158)"><g class="sc-dAbbOL ceTgQa node state Fail" data-testid="graph-Fail" data-state-id="Fail" data-state-type="Fail"><g class="new-look-state-node "><rect x="-120" y="-24.5" width="240" height="49" rx="3" ry="3"/><g class="handle" transform="translate(-120,-24.5)"><path d="M5,16 L5,34 M8,16 L8,34"/></g><g class="icon" transform="translate(-104,-24)"><rect fill="var(--color-background-container-header-9ekpze, #fafafa)" x="0.0361026108" y="0.0181291967" width="48" height="48"/><line x1="47.5" y1="0.49122807" x2="47.5" y2="47.5" stroke="var(--color-board-placeholder-active-e71qda, #d5dbdb)" stroke-linecap="square"/><line x1="0.5" y1="0.49122807" x2="0.5" y2="47.5" stroke="var(--color-board-placeholder-active-e71qda, #d5dbdb)" stroke-linecap="square"/><use href="#icon-flow-fail"/></g><g class="text-lines" transform="translate(-48,-24.5)"><text transform="translate(0,17)" class="line1"><tspan xml:space="preserve" text-anchor="start">Fail state</tspan></text><text transform="translate(0,35.5)" class="line2 label"><tspan xml:space="preserve" text-anchor="start">Fail</tspan></text></g></g></g></g><g class="node-container" transform="translate(698,1158)"><g class="sc-dAbbOL ceTgQa node state Succeed" data-testid="graph-Success" data-state-id="Success" data-state-type="Succeed"><g class="new-look-state-node "><rect x="-120" y="-24.5" width="240" height="49" rx="3" ry="3"/><g class="handle" transform="translate(-120,-24.5)"><path d="M5,16 L5,34 M8,16 L8,34"/></g><g class="icon" transform="translate(-104,-24)"><rect fill="var(--color-background-container-header-9ekpze, #fafafa)" x="0.0361026108" y="0.0181291967" width="48" height="48"/><line x1="47.5" y1="0.49122807" x2="47.5" y2="47.5" stroke="var(--color-board-placeholder-active-e71qda, #d5dbdb)" stroke-linecap="square"/><line x1="0.5" y1="0.49122807" x2="0.5" y2="47.5" stroke="var(--color-board-placeholder-active-e71qda, #d5dbdb)" stroke-linecap="square"/><use href="#icon-flow-succeed"/></g><g class="text-lines" transform="translate(-48,-24.5)"><text transform="translate(0,17)" class="line1"><tspan xml:space="preserve" text-anchor="start">Succeed state</tspan></text><text transform="translate(0,35.5)" class="line2 label"><tspan xml:space="preserve" text-anchor="start">Success</tspan></text></g></g></g></g></g><g class="edges"><g class="sc-feUZmu eldnFl edge"><path id="state-Check for updates:state-Choice:normal" d="M409,128L409,130.91666666666666C409,133.83333333333334,409,139.66666666666666,409,145.5C409,151.33333333333334,409,157.16666666666666,409,160.08333333333334L409,163" marker-end="url(#arrowhead)" fill="none"/></g><g class="sc-feUZmu eldnFl edge"><path id="start:state-Check for updates" d="M409,44L409,46.916666666666664C409,49.833333333333336,409,55.666666666666664,409,61.5C409,67.33333333333333,409,73.16666666666667,409,76.08333333333333L409,79" marker-end="url(#arrowhead)" fill="none"/></g><g class="sc-feUZmu eldnFl edge"><path id="state-Choice:state-No updates:choiceRule:0" d="M289,208.3650519031142L260.8333333333333,213.26254325259515C232.66666666666666,218.16003460207614,176.33333333333334,227.95501730103805,148.16666666666666,241.227508650519C120,254.5,120,271.25,120,286.625C120,302,120,316,120,330C120,344,120,358,120,373.375C120,388.75,120,405.5,120,464C120,522.5,120,622.75,120,723C120,823.25,120,923.5,120,982C120,1040.5,120,1057.25,120,1072.625C120,1088,120,1102,120,1111.9166666666667C120,1121.8333333333333,120,1127.6666666666667,120,1130.5833333333333L120,1133.5" marker-end="url(#arrowhead)" fill="none"/><g data-testid="graph-Choice-0" class="edge-label" transform="translate(148.16666666666666,241.227508650519)"><rect x="-43" y="-8.25" width="86" height="16.5" class="sc-fUnMCh VmUIf"/><text class="sc-hzhJZQ iEtHmm label"><tspan xml:space="preserve" text-anchor="middle" alignment-baseline="central">$.nodata == true</tspan><title>$.nodata == true</title></text></g></g><g class="sc-feUZmu eldnFl edge"><path id="state-Choice:state-Create Spark App:choiceDefault" d="M477.2587064676617,212L489.21558872305144,216.29166666666666C501.17247097844114,220.58333333333334,525.0862354892206,229.16666666666666,537.0431177446103,237.75C549,246.33333333333334,549,254.91666666666666,549,259.2083333333333L549,263.5" marker-end="url(#arrowhead)" fill="none"/><g data-testid="graph-Choice-Default" class="edge-label" transform="translate(537.0431177446103,237.75)"><rect x="-22" y="-8.25" width="44" height="16.5" class="sc-fUnMCh VmUIf"/><text class="sc-hzhJZQ iEtHmm label"><tspan xml:space="preserve" text-anchor="middle" alignment-baseline="central">Default</tspan><title>Default</title></text></g></g><g class="sc-feUZmu eldnFl edge"><path id="state-No updates:end:normal" d="M120,1182.5L120,1185.4166666666667C120,1188.3333333333333,120,1194.1666666666667,163.0359497382649,1203.1544762428387C206.07189947652978,1212.1422858190106,292.14379895305956,1224.284571638021,335.17974869132445,1230.355714547526L378.21569842958934,1236.4268574570312" marker-end="url(#arrowhead)" fill="none"/></g><g class="sc-feUZmu eldnFl edge"><path id="state-Create Spark App:state-Start Spark App:normal" d="M549,312.5L549,315.4166666666667C549,318.3333333333333,549,324.1666666666667,549,330C549,335.8333333333333,549,341.6666666666667,549,344.5833333333333L549,347.5" marker-end="url(#arrowhead)" fill="none"/></g><g class="sc-feUZmu eldnFl edge"><path id="state-Start Spark App:state-Parallel:normal" d="M549,396.5L549,400.7916666666667C549,405.0833333333333,549,413.6666666666667,549,422.25C549,430.8333333333333,549,439.4166666666667,549,443.7083333333333L549,448" marker-end="url(#arrowhead)" fill="none"/></g><g class="sc-feUZmu eldnFl edge"><path id="state-Parallel:state-Stop Spark App (Success):normal" d="M685.2427265170408,998L687.3689387642007,1002.2916666666666C689.4951510113606,1006.5833333333334,693.7475755056803,1015.1666666666666,695.8737877528401,1023.75C698,1032.3333333333333,698,1040.9166666666667,698,1045.2083333333333L698,1049.5" marker-end="url(#arrowhead)" fill="none"/></g><g class="sc-feUZmu eldnFl edge"><path id="state-Parallel:state-Stop Spark App:catch:0" d="M412.75727348295925,998L410.63106123579934,1002.2916666666666C408.5048489886395,1006.5833333333334,404.2524244943197,1015.1666666666666,402.12621224715986,1023.75C400,1032.3333333333333,400,1040.9166666666667,400,1045.2083333333333L400,1049.5" marker-end="url(#arrowhead)" fill="none"/><g data-testid="graph-Parallel-0" class="edge-label" transform="translate(402.12621224715986,1023.75)"><rect x="-25" y="-8.25" width="50" height="16.5" class="sc-fUnMCh VmUIf"/><text class="sc-hzhJZQ iEtHmm label"><tspan xml:space="preserve" text-anchor="middle" alignment-baseline="central">Catch #1</tspan><title>Catch #1</title></text></g></g><g class="sc-feUZmu eldnFl edge"><path id="state-Stop Spark App:state-Fail:normal" d="M400,1098.5L400,1101.4166666666667C400,1104.3333333333333,400,1110.1666666666667,400,1116C400,1121.8333333333333,400,1127.6666666666667,400,1130.5833333333333L400,1133.5" marker-end="url(#arrowhead)" fill="none"/></g><g class="sc-feUZmu eldnFl edge"><path id="state-Fail:end:normal" d="M400,1182.5L400,1185.4166666666667C400,1188.3333333333333,400,1194.1666666666667,400,1200C400,1205.8333333333333,400,1211.6666666666667,400,1214.5833333333333L400,1217.5" marker-end="url(#arrowhead)" fill="none"/></g><g class="sc-feUZmu eldnFl edge"><path id="state-Stop Spark App (Success):state-Success:normal" d="M698,1098.5L698,1101.4166666666667C698,1104.3333333333333,698,1110.1666666666667,698,1116C698,1121.8333333333333,698,1127.6666666666667,698,1130.5833333333333L698,1133.5" marker-end="url(#arrowhead)" fill="none"/></g><g class="sc-feUZmu eldnFl edge"><path id="state-Success:end:normal" d="M698,1182.5L698,1185.4166666666667C698,1188.3333333333333,698,1194.1666666666667,651.9682074113693,1203.1848628878668C605.9364148227388,1212.2030591090665,513.8728296454775,1224.406118218133,467.8410370568469,1230.5076477726664L421.80924446821626,1236.6091773271996" marker-end="url(#arrowhead)" fill="none"/></g></g><defs><marker id="arrowhead" markerWidth="8" markerHeight="6" refX="7" refY="3" orient="auto" class="sc-fBWQRz cnxUso"><polygon points="0 0, 8 3, 0 6"/></marker><marker id="highlighted-arrowhead" markerWidth="6" markerHeight="4" refX="5" refY="2" orient="auto" class="sc-fBWQRz cnxUso"><polygon points="0 0, 6 2, 0 4"/></marker><marker id="error-arrowhead" markerWidth="6" markerHeight="4" refX="5" refY="2" orient="auto" class="sc-fBWQRz cnxUso"><polygon points="0 0, 6 2, 0 4"/></marker><marker id="large-arrowhead" markerWidth="10" markerHeight="8" refX="9" refY="4" orient="auto" class="sc-fBWQRz cnxUso"><polygon points="0 0, 10 4, 0 8"/></marker><marker id="large-highlighted-arrowhead" markerWidth="5.5" markerHeight="4" refX="4.5" refY="2" orient="auto" class="sc-fBWQRz cnxUso"><polygon points="0 0, 5.5 2, 0 4"/></marker><marker id="large-error-arrowhead" markerWidth="10" markerHeight="8" refX="9" refY="4" orient="auto" class="sc-fBWQRz cnxUso"><polygon points="0 0, 10 4, 0 8"/></marker><linearGradient x1="0%" y1="100%" x2="100%" y2="0%" id="gradient-orange"><stop stop-color="#C8511B" offset="0%"/><stop stop-color="#FF9900" offset="100%"/></linearGradient><linearGradient x1="0%" y1="100%" x2="100%" y2="0%" id="gradient-turquoise"><stop stop-color="#055F4E" offset="0%"/><stop stop-color="#56C0A7" offset="100%"/></linearGradient><linearGradient x1="0%" y1="100%" x2="100%" y2="0%" id="gradient-blue"><stop stop-color="#2E27AD" offset="0%"/><stop stop-color="#527FFF" offset="100%"/></linearGradient><linearGradient x1="0%" y1="100%" x2="100%" y2="0%" id="gradient-pink"><stop stop-color="#B0084D" offset="0%"/><stop stop-color="#FF4F8B" offset="100%"/></linearGradient><linearGradient x1="0%" y1="100%" x2="100%" y2="0%" id="gradient-red"><stop stop-color="#BD0816" offset="0%"/><stop stop-color="#FF5252" offset="100%"/></linearGradient><linearGradient x1="0%" y1="100%" x2="100%" y2="0%" id="gradient-green"><stop stop-color="#1B660F" offset="0%"/><stop stop-color="#6CAE3E" offset="100%"/></linearGradient><linearGradient x1="0%" y1="100%" x2="100%" y2="0%" id="gradient-purple"><stop stop-color="#4D27A8" offset="0%"/><stop stop-color="#A166FF" offset="100%"/></linearGradient><linearGradient x1="0%" y1="100%" x2="100%" y2="0%" id="gradient-grey"><stop stop-color="#DCDCDC" offset="0%"/><stop stop-color="#F6F5F7" offset="100%"/></linearGradient>,<linearGradient x1="0%" y1="100%" x2="100%" y2="0%" id="gradient-ag"><stop stop-color="#BC1356" offset="0%"/><stop stop-color="#F34482" offset="100%"/></linearGradient><linearGradient x1="0%" y1="100%" x2="100%" y2="0%" id="gradient-athena"><stop stop-color="#5930B5" offset="0%"/><stop stop-color="#945DF2" offset="100%"/></linearGradient><linearGradient x1="0%" y1="100%" x2="100%" y2="0%" id="gradient-emr"><stop stop-color="#5930B5" offset="0%"/><stop stop-color="#945DF2" offset="100%"/></linearGradient><linearGradient x1="0%" y1="100%" x2="100%" y2="0%" id="gradient-glue"><stop stop-color="#5930B5" offset="0%"/><stop stop-color="#945DF2" offset="100%"/></linearGradient><linearGradient x1="0%" y1="100%" x2="100%" y2="0%" id="gradient-sns"><stop stop-color="#BC1356" offset="0%"/><stop stop-color="#F34482" offset="100%"/></linearGradient><linearGradient x1="0%" y1="100%" x2="100%" y2="0%" id="gradient-states"><stop stop-color="#BC1356" offset="0%"/><stop stop-color="#F34482" offset="100%"/></linearGradient><linearGradient x1="0%" y1="100%" x2="100%" y2="0%" id="gradient-generic"><stop stop-color="#ccc" offset="0%"/><stop stop-color="#ddd" offset="100%"/></linearGradient><g stroke="none" stroke-width="1" fill="none" fill-rule="evenodd" id="icon-flow-pass"><g transform="translate(10.500000, 8.750000)" fill="#0073BB" fill-rule="nonzero"><path d="M13.8217363,31.2803301 L13.7368454,31.3532508 L13.7368454,31.3532508 L13.6534426,31.407053 L13.6534426,31.407053 L13.6052878,31.4313839 L13.6052878,31.4313839 L13.5081671,31.4681458 L13.5081671,31.4681458 L13.4513711,31.4828395 L13.4513711,31.4828395 L13.3846755,31.4942127 L13.3846755,31.4942127 L13.3412428,31.498357 L13.3412428,31.498357 L13.241495,31.498357 L13.241495,31.498357 L13.1802045,31.4917588 L13.1802045,31.4917588 L13.1314644,31.4828361 L13.1314644,31.4828361 L13.0652921,31.4652652 L12.9776235,31.4314294 L12.9776235,31.4314294 L12.9293782,31.4070608 L12.9293782,31.4070608 L12.8294824,31.3409596 L12.7610762,31.2803301 L12.7610762,31.2803301 L8.26107616,26.7803301 C7.96818295,26.4874369 7.96818295,26.0125631 8.26107616,25.7196699 C8.52734273,25.4534034 8.94400641,25.4291973 9.2376179,25.6470518 L9.32173634,25.7196699 L12.5814063,28.979 L12.581,19.7495522 L3.5,19.75 C1.6314366,19.75 0.104873551,18.2857224 0.00517886273,16.4420352 L0,16.25 L0,12.25 C0,10.3814366 1.4642776,8.85487355 3.3079648,8.75517886 L3.5,8.75 L11.686,8.74955216 L11.686,10.2495522 L3.5,10.25 C2.4456382,10.25 1.58183488,11.0658778 1.50548574,12.1007377 L1.5,12.25 L1.5,16.25 C1.5,17.3043618 2.31587779,18.1681651 3.35073766,18.2445143 L3.5,18.25 L22.5,18.25 C23.5543618,18.25 24.4181651,17.4341222 24.4945143,16.3992623 L24.5,16.25 L24.5,12.25 C24.5,11.1956382 23.6841222,10.3318349 22.6492623,10.2554857 L22.5,10.25 L15.686,10.2495522 L15.686,8.74955216 L22.5,8.75 C24.3685634,8.75 25.8951264,10.2142776 25.9948211,12.0579648 L26,12.25 L26,16.25 C26,18.1185634 24.5357224,19.6451264 22.6920352,19.7448211 L22.5,19.75 L14.081,19.7495522 L14.0814063,28.899 L17.2610762,25.7196699 L17.3451946,25.6470518 C17.6388061,25.4291973 18.0554698,25.4534034 18.3217363,25.7196699 C18.5880029,25.9859365 18.6122089,26.4026002 18.3943545,26.6962117 L18.3217363,26.7803301 L13.8217363,31.2803301 Z" fill="false"/><polygon points="14.0818291 0 14.0818291 14.5 12.5818291 14.5 12.5818291 0" fill="false"/></g></g><g stroke="none" stroke-width="1" fill="none" fill-rule="evenodd" id="icon-flow-choice"><g transform="translate(9.252020, 8.729185)" fill="#0073BB" fill-rule="nonzero"><path d="M13.7176503,0.219669914 C13.9839168,-0.0465966484 14.4005805,-0.0708026996 14.694192,0.147051761 L14.7783104,0.219669914 L26.7991257,12.2404852 C27.0653923,12.5067518 27.0895983,12.9234154 26.8717439,13.2170269 L26.7991257,13.3011454 L19.848,20.251 L27.063,27.58 L27.0635443,24.4725437 C27.0635443,24.0583302 27.3993308,23.7225437 27.8135443,23.7225437 C28.1901021,23.7225437 28.5018441,24.0000532 28.5554124,24.3617142 L28.5635443,24.4725437 L28.5635443,29.4222912 C28.5635443,29.4735748 28.5583971,29.5236562 28.5485912,29.5720469 L28.5290567,29.6477745 L28.4912259,29.7440224 L28.4674556,29.7898473 L28.4399848,29.8348433 L28.3922808,29.8993609 L28.3266417,29.9693147 L28.2903734,30.0012261 L28.2103598,30.0588356 L28.1372883,30.0990133 L28.0408973,30.1372113 L27.9243738,30.1641593 C27.8841362,30.1698129 27.8491297,30.1722912 27.8135443,30.1722912 L22.8637969,30.1722912 C22.4495833,30.1722912 22.1137969,29.8365048 22.1137969,29.4222912 C22.1137969,29.0457334 22.3913063,28.7339914 22.7529674,28.6804231 L22.8637969,28.6722912 L26.032,28.672 L18.787,21.312 L14.7783104,25.3219606 C14.5120439,25.5882272 14.0953802,25.6124333 13.8017687,25.3945788 L13.7176503,25.3219606 L9.63,21.234 L2.386,28.671 L5.69974747,28.6722912 L5.81057697,28.6804231 C6.17223802,28.7339914 6.44974747,29.0457334 6.44974747,29.4222912 C6.44974747,29.801987 6.16759359,30.1157822 5.80151803,30.1654446 L5.69974747,30.1722912 L0.75,30.1722912 L0.645175107,30.1650238 L0.571316134,30.150876 L0.491748953,30.1266437 L0.399838514,30.0857012 L0.323957521,30.0396165 L0.243169757,29.975129 L0.170912131,29.8989347 L0.109961584,29.8134582 L0.0656949991,29.7297074 L0.0297396696,29.6320944 L0.0076057584,29.5294944 L6.67910172e-13,29.4222912 L6.67910172e-13,24.4725437 L0.00813192572,24.3617142 C0.0617002376,24.0000532 0.373442216,23.7225437 0.75,23.7225437 C1.12969577,23.7225437 1.44349096,24.0046976 1.49315338,24.3707732 L1.5,24.4725437 L1.499,27.433 L8.569,20.174 L1.69683498,13.3011454 C1.43056842,13.0348788 1.40636237,12.6182151 1.62421683,12.3246036 L1.69683498,12.2404852 L13.7176503,0.219669914 Z M14.3527697,23.728356 L25.2081355,12.7708153 L14.2479803,1.81066017 L3.28782524,12.7708153 L9.616,19.099 L14.3527697,23.728356 Z" fill="false"/><path d="M15.2319803,14.0468153 L15.2319803,13.2668153 C16.0033137,12.8508153 16.5579803,12.4218153 16.8959803,11.9798153 C17.2339803,11.5378153 17.4029803,11.0178153 17.4029803,10.4198153 C17.4029803,9.65714861 17.151647,9.06131528 16.6489803,8.63231528 C16.1463137,8.20331528 15.448647,7.98881528 14.5559803,7.98881528 C13.6979803,7.98881528 12.874647,8.19248195 12.0859803,8.59981528 L12.0859803,8.59981528 L12.0859803,10.3288153 C12.8313137,9.98214861 13.4943137,9.80881528 14.0749803,9.80881528 C14.395647,9.80881528 14.6404803,9.87814861 14.8094803,10.0168153 C14.9784803,10.1554819 15.0629803,10.3591486 15.0629803,10.6278153 C15.0629803,10.9138153 14.9763137,11.1651486 14.8029803,11.3818153 C14.629647,11.5984819 14.343647,11.8151486 13.9449803,12.0318153 L13.9449803,12.0318153 L13.1909803,12.4348153 L13.3339803,14.0468153 L15.2319803,14.0468153 Z M14.3089803,17.4398153 C14.7249803,17.4398153 15.0608137,17.3141486 15.3164803,17.0628153 C15.572147,16.8114819 15.6999803,16.4821486 15.6999803,16.0748153 C15.6999803,15.6674819 15.572147,15.3381486 15.3164803,15.0868153 C15.0608137,14.8354819 14.7249803,14.7098153 14.3089803,14.7098153 C13.8929803,14.7098153 13.557147,14.8354819 13.3014803,15.0868153 C13.0458137,15.3381486 12.9179803,15.6674819 12.9179803,16.0748153 C12.9179803,16.4821486 13.0458137,16.8114819 13.3014803,17.0628153 C13.557147,17.3141486 13.8929803,17.4398153 14.3089803,17.4398153 Z" fill="false"/></g></g><g stroke="none" stroke-width="1" fill="none" fill-rule="evenodd" id="icon-flow-parallel"><g transform="translate(7.794758, 8.750000)" fill="#0073BB" fill-rule="nonzero"><path d="M16.199562,30.9615157 L16.1088907,30.9567289 L16.0428411,30.9462621 L15.9289205,30.9134016 L15.8581395,30.8824655 L15.747534,30.8144639 L15.6634156,30.7418457 L12.1634156,27.2418457 C11.8705224,26.9489525 11.8705224,26.4740788 12.1634156,26.1811856 C12.4296821,25.914919 12.8463458,25.890713 13.1399573,26.1085674 L13.2240758,26.1811856 L15.455,28.412 L15.455,12.999 L4.95524179,12.999 L4.955,28.446 L7.21966991,26.1811856 L7.30378835,26.1085674 C7.59739984,25.890713 8.01406352,25.914919 8.28033009,26.1811856 C8.54659665,26.4474521 8.5708027,26.8641158 8.35294824,27.1577273 L8.28033009,27.2418457 L4.78033009,30.7418457 L4.69621165,30.8144639 L4.689,30.818 C4.66089447,30.8406686 4.6237969,30.8633711 4.58539483,30.8825712 L4.50825575,30.9158403 L4.44163507,30.9367462 L4.36774058,30.9522701 L4.27779844,30.9610057 L4.22212648,30.9610007 L4.09909543,30.9462621 L3.99176083,30.9158467 L3.9143938,30.8824655 L3.82554184,30.8300094 L3.80378835,30.8144639 L3.71966991,30.7418457 L0.219669914,27.2418457 C-0.0732233047,26.9489525 -0.0732233047,26.4740788 0.219669914,26.1811856 C0.485936477,25.914919 0.902600159,25.890713 1.19621165,26.1085674 L1.28033009,26.1811856 L3.455,28.356 L3.45524179,12.25 C3.45524179,11.8703042 3.73739568,11.556509 4.10347124,11.5068466 L4.20524179,11.5 L15.455,11.502 L15.4552418,-1.42108547e-13 L16.9552418,-1.42108547e-13 L16.955,11.495 L28.1555171,11.5 C28.5351143,11.5001394 28.8487603,11.7822674 28.8983985,12.1482549 L28.9052418,12.25 L28.905,28.44 L31.1641955,26.1811856 L31.2483139,26.1085674 C31.5419254,25.890713 31.9585891,25.914919 32.2248557,26.1811856 C32.4911222,26.4474521 32.5153283,26.8641158 32.2974738,27.1577273 L32.2248557,27.2418457 L28.7248557,30.7418457 C28.6845386,30.7821628 28.6407734,30.8169302 28.5945094,30.8461478 L28.5328469,30.8811 L28.4268027,30.9248089 L28.3112733,30.9524264 L28.1887092,30.9615157 L28.1087231,30.9566189 L28.0352714,30.9445058 L27.9277401,30.9126603 L27.8920604,30.8980433 L27.8568141,30.8814079 C27.8351606,30.8704626 27.8145136,30.8587698 27.7943421,30.8460217 C27.7482777,30.8169302 27.7045126,30.7821628 27.6641955,30.7418457 L24.1641955,27.2418457 C23.8713023,26.9489525 23.8713023,26.4740788 24.1641955,26.1811856 C24.4304621,25.914919 24.8471258,25.890713 25.1407372,26.1085674 L25.2248557,26.1811856 L27.405,28.362 L27.4052418,12.999 L16.955,12.992 L16.955,28.389 L19.1634156,26.1811856 L19.247534,26.1085674 C19.5411455,25.890713 19.9578092,25.914919 20.2240758,26.1811856 C20.4903423,26.4474521 20.5145484,26.8641158 20.2966939,27.1577273 L20.2240758,27.2418457 L16.7240758,30.7418457 L16.6399573,30.8144639 L16.636,30.816 L16.589136,30.8490255 L16.5330413,30.8806066 L16.4260228,30.9248089 L16.3532729,30.9444467 L16.2795333,30.9566255 L16.199562,30.9615157 Z" fill="false"/></g></g><g stroke="none" stroke-width="1" fill="none" fill-rule="evenodd" id="icon-flow-succeed"><g transform="translate(11.250000, 12.250000)" fill="#2AB512" fill-rule="nonzero"><path d="M12.75,0 C5.70836944,0 0,5.70836944 0,12.75 C0,19.7916306 5.70836944,25.5 12.75,25.5 C19.7916306,25.5 25.5,19.7916306 25.5,12.75 C25.5,5.70836944 19.7916306,0 12.75,0 Z M12.75,1.5 C18.9632034,1.5 24,6.53679656 24,12.75 C24,18.9632034 18.9632034,24 12.75,24 C6.53679656,24 1.5,18.9632034 1.5,12.75 C1.5,6.53679656 6.53679656,1.5 12.75,1.5 Z"/><path d="M17.482151,9.3912361 C17.7750442,9.09834288 18.2499179,9.09834288 18.5428111,9.3912361 C18.8090777,9.65750266 18.8332838,10.0741663 18.6154293,10.3677778 L18.5428111,10.4518963 L11.1581958,17.8365117 C10.9013427,18.0933647 10.5030038,18.1258243 10.2104294,17.9293959 L10.1171609,17.8554362 L6.98253225,14.9408143 C6.67918728,14.6587599 6.66192789,14.1841999 6.94398232,13.8808549 C7.20039544,13.6050868 7.61590405,13.565753 7.91723953,13.7727921 L8.0039417,13.842305 L10.608,16.264 L17.482151,9.3912361 Z"/></g></g><g stroke="none" stroke-width="1" fill="none" fill-rule="evenodd" id="icon-flow-fail"><g transform="translate(11.250000, 12.250000)" fill="#D13212" fill-rule="nonzero"><path d="M12.75,0 C5.70836944,0 0,5.70836944 0,12.75 C0,19.7916306 5.70836944,25.5 12.75,25.5 C19.7916306,25.5 25.5,19.7916306 25.5,12.75 C25.5,5.70836944 19.7916306,0 12.75,0 Z M12.75,1.5 C18.9632034,1.5 24,6.53679656 24,12.75 C24,18.9632034 18.9632034,24 12.75,24 C6.53679656,24 1.5,18.9632034 1.5,12.75 C1.5,6.53679656 6.53679656,1.5 12.75,1.5 Z"/><path d="M16.5831403,8.21116377 C16.8767518,7.99330931 17.2934155,8.01751536 17.559682,8.28378193 C17.8259486,8.55004849 17.8501547,8.96671217 17.6323002,9.26032366 L17.559682,9.3444421 L13.622464,13.282112 L17.559682,17.2196699 C17.8525753,17.5125631 17.8525753,17.9874369 17.559682,18.2803301 C17.2934155,18.5465966 16.8767518,18.5708027 16.5831403,18.3529482 L16.4990219,18.2803301 L12.561464,14.343112 L8.62379406,18.2803301 L8.53967563,18.3529482 C8.24606413,18.5708027 7.82940045,18.5465966 7.56313389,18.2803301 C7.29686733,18.0140635 7.27266128,17.5973998 7.49051574,17.3037883 L7.56313389,17.2196699 L11.500464,13.282112 L7.56313389,9.3444421 C7.27024067,9.05154888 7.27024067,8.57667514 7.56313389,8.28378193 C7.82940045,8.01751536 8.24606413,7.99330931 8.53967563,8.21116377 L8.62379406,8.28378193 L12.561464,12.221112 L16.4990219,8.28378193 L16.5831403,8.21116377 Z"/></g></g><g stroke="none" stroke-width="1" fill="none" fill-rule="evenodd" id="icon-service-emr"><polygon fill="url(#gradient-emr)" fill-rule="nonzero" points="0 0 48 0 48 48 0 48"/><path d="M36.5733525,30.9141776 C36.5733525,30.2941059 36.3333365,29.7120684 35.8990218,29.2729471 C35.450992,28.8211476 34.8612384,28.5952479 34.2726277,28.5952479 C33.684017,28.5952479 33.0942634,28.8211476 32.6450906,29.2729471 C31.747888,30.1776984 31.747888,31.6495042 32.6450906,32.5542556 C33.51372,33.4313458 35.0303925,33.4324983 35.8990218,32.5542556 C36.3333365,32.1162868 36.5733525,31.5342492 36.5733525,30.9141776 L36.5733525,30.9141776 Z M31.060985,29.6809496 C31.2221386,29.2510486 31.4690122,28.8465037 31.8061776,28.4961287 L30.5855247,26.1529955 L29.0677093,29.0458948 L31.060985,29.6809496 Z M27.4161706,29.7293567 L19.4933567,27.2041206 C19.0830436,27.94521 18.5298639,28.5917903 17.8726772,29.1127427 L21.7792234,34.5781326 C22.7495738,33.9050436 23.9862277,33.7920938 25.0468698,34.2427407 L27.4161706,29.7293567 Z M26.0012191,37.4237774 C26.0012191,36.8083159 25.763489,36.2297361 25.3314602,35.7940723 C24.8857162,35.344578 24.3005343,35.1198308 23.7153525,35.1198308 C23.1301706,35.1198308 22.5449887,35.344578 22.0992447,35.7940723 C21.6672159,36.2297361 21.4294858,36.8083159 21.4294858,37.4237774 C21.4294858,38.0392388 21.6672159,38.6178187 22.0992447,39.0534824 C22.9895898,39.9513185 24.4411151,39.9513185 25.3314602,39.0534824 C25.763489,38.6178187 26.0012191,38.0392388 26.0012191,37.4237774 L26.0012191,37.4237774 Z M14.0004191,29.3155914 C16.8360367,29.3155914 19.1436191,26.9897464 19.1436191,24.1291185 C19.1436191,21.2696431 16.8360367,18.9426456 14.0004191,18.9426456 C11.1648015,18.9426456 8.85721905,21.2696431 8.85721905,24.1291185 C8.85721905,26.9897464 11.1648015,29.3155914 14.0004191,29.3155914 L14.0004191,29.3155914 Z M21.4294858,12.0273484 C21.4294858,12.6428098 21.6672159,13.2213897 22.0992447,13.6570534 C22.9895898,14.556042 24.4411151,14.556042 25.3314602,13.6570534 C25.763489,13.2213897 26.0012191,12.6428098 26.0012191,12.0273484 C26.0012191,11.4118869 25.763489,10.833307 25.3314602,10.3976433 C24.8857162,9.94930154 24.3005343,9.72340183 23.7153525,9.72340183 C23.1301706,9.72340183 22.5449887,9.94930154 22.0992447,10.3976433 C21.6672159,10.833307 21.4294858,11.4118869 21.4294858,12.0273484 L21.4294858,12.0273484 Z M24.9097178,15.2590973 C24.5245493,15.4031659 24.1210938,15.4826919 23.7153525,15.4838444 C23.0867391,15.4838444 22.4626975,15.3040467 21.9118036,14.9594344 L18.4807178,19.6906502 C19.1744783,20.4029258 19.7047994,21.2777109 20.0053908,22.2539204 L27.3601669,19.9638045 L24.9097178,15.2590973 Z M20.2865524,24.1291185 C20.2865524,24.8344788 20.1676874,25.5098728 19.9562447,26.1437751 L27.9602069,28.6932146 L29.9409103,24.9174624 L27.9007743,21.001099 L20.2396922,23.3868766 C20.2671226,23.6312171 20.2865524,23.8778627 20.2865524,24.1291185 L20.2865524,24.1291185 Z M29.0117055,20.6553342 L30.5900965,23.6842344 L32.0816245,20.8420472 C32.0004762,20.7740468 31.9136133,20.7175719 31.8370368,20.640351 C31.6255941,20.4271294 31.4587258,20.1873991 31.3135733,19.9384484 L29.0117055,20.6553342 Z M32.6450906,19.8254985 C33.51372,20.7025887 35.0303925,20.7037413 35.8990218,19.8254985 C36.3333365,19.3875297 36.5733525,18.8054922 36.5733525,18.1854205 C36.5733525,17.5653489 36.3333365,16.9833114 35.8990218,16.54419 C35.450992,16.0923906 34.8612384,15.8664909 34.2726277,15.8664909 C33.684017,15.8664909 33.0942634,16.0923906 32.6450906,16.54419 C31.747888,17.4489414 31.747888,18.9207471 32.6450906,19.8254985 L32.6450906,19.8254985 Z M36.7070757,28.4580945 C38.0500224,29.8123402 38.0500224,32.016015 36.7070757,33.3691081 C36.0361738,34.0468072 35.1549722,34.3845042 34.2726277,34.3845042 C33.3902832,34.3845042 32.5079386,34.0468072 31.8370368,33.3691081 C31.1421333,32.668358 30.8152544,31.7405556 30.839256,30.8196685 L28.523673,30.0820368 L26.0092197,34.8720327 C26.0515082,34.9100668 26.0995114,34.937728 26.1395141,34.9792198 C26.7864143,35.6315628 27.1441525,36.5005852 27.1441525,37.4237774 C27.1441525,38.3469695 26.7864143,39.2159919 26.1395141,39.8683349 C25.4708981,40.5425764 24.5942682,40.8791209 23.7153525,40.8791209 C22.8364367,40.8791209 21.9598068,40.5425764 21.2911908,39.8683349 C20.6431476,39.2159919 20.2865524,38.3469695 20.2865524,37.4237774 C20.2865524,36.6815355 20.5265684,35.9807854 20.9528826,35.3929851 L16.9137562,29.7408822 C16.041698,30.2030545 15.0519177,30.4681409 14.0004191,30.4681409 C10.5350452,30.4681409 7.71428571,27.6248012 7.71428571,24.1291185 C7.71428571,20.6345883 10.5350452,17.790096 14.0004191,17.790096 C15.3422228,17.790096 16.5845914,18.219997 17.6063738,18.9449507 L21.0580324,14.1860736 C20.567714,13.5740698 20.2865524,12.8260652 20.2865524,12.0273484 C20.2865524,11.1041562 20.6431476,10.2362864 21.2911908,9.58279079 C22.6284228,8.23430783 24.8022821,8.23430783 26.1395141,9.58279079 C26.7864143,10.2362864 27.1441525,11.1041562 27.1441525,12.0273484 C27.1441525,12.9516931 26.7864143,13.8195629 26.1395141,14.4719059 C26.0640805,14.5491267 25.9760746,14.6067542 25.8937834,14.6747546 L28.4699551,19.6180396 L30.8964026,18.8619671 C30.6826741,17.7624348 30.9946949,16.5787665 31.8370368,15.7293375 C33.1776976,14.3762443 35.364129,14.3739392 36.7070757,15.7293375 C38.0500224,17.0835832 38.0500224,19.2872579 36.7070757,20.640351 C36.0361738,21.3180502 35.1549722,21.6557472 34.2726277,21.6557472 C33.8623146,21.6557472 33.4542874,21.5750687 33.0656901,21.4298475 L31.233568,24.9197675 L32.7433829,27.8195821 C34.0314688,27.1741544 35.6361472,27.3770031 36.7070757,28.4580945 L36.7070757,28.4580945 Z M14.5718857,23.5528437 L16.8577524,23.5528437 L16.8577524,24.7053932 L14.5718857,24.7053932 L14.5718857,27.0104923 L13.4289524,27.0104923 L13.4289524,24.7053932 L11.1430857,24.7053932 L11.1430857,23.5528437 L13.4289524,23.5528437 L13.4289524,21.2477446 L14.5718857,21.2477446 L14.5718857,23.5528437 Z" fill="#FFFFFF"/></g><g stroke="none" stroke-width="1" fill="none" fill-rule="evenodd" id="icon-service-lam"><polygon fill="url(#gradient-orange)" fill-rule="nonzero" points="0 0 48 0 48 48 0 48"/><g transform="translate(11, 10)" fill="#FFFFFF"><path d="M26.5889213,27.8937088 L19.6925948,27.8937088 C19.4772752,27.8931074 19.2813916,27.7706914 19.1888047,27.578869 L9.43766764,7.45673404 L5.31218659,7.45673404 C5.00303594,7.45673404 4.75241983,7.20943823 4.75241983,6.90438337 L4.75241983,0.828526005 C4.75241983,0.523471153 5.00303594,0.276175335 5.31218659,0.276175335 L13.9325948,0.276175335 C14.1479143,0.276776788 14.3437979,0.399192787 14.4363848,0.591015217 L24.1427405,20.7131501 L26.5889213,20.7131501 C26.8980719,20.7131501 27.148688,20.9604459 27.148688,21.2655008 L27.148688,27.3413582 C27.148688,27.646413 26.8980719,27.8937088 26.5889213,27.8937088 Z M20.0452478,26.7890075 L26.0291545,26.7890075 L26.0291545,21.8178515 L23.7900875,21.8178515 C23.5747679,21.81725 23.3788843,21.694834 23.2862974,21.5030116 L13.5799417,1.38087667 L5.87755102,1.38087667 L5.87755102,6.3520327 L9.79591837,6.3520327 C10.0112379,6.35263416 10.2071215,6.47505016 10.2997085,6.66687259 L20.0452478,26.7890075 Z"/><path d="M8.10542274,27.8937099 L0.82845481,27.8937099 C0.635054571,27.8940907 0.455155006,27.7959347 0.352653061,27.634104 C0.243858391,27.4681848 0.233185428,27.2575536 0.324664723,27.0817533 L7.93749271,11.3894708 C8.03007964,11.1976484 8.22596323,11.0752324 8.4412828,11.0746298 L8.4412828,11.0746298 C8.65533487,11.0742082 8.85089022,11.1942751 8.94507289,11.3839473 L12.5891545,18.7799228 C12.6634688,18.931712 12.6634688,19.1086786 12.5891545,19.2604679 L8.6148105,27.5457279 C8.53147526,27.7523199 8.33072312,27.8894609 8.10542274,27.8937099 L8.10542274,27.8937099 Z M1.72408163,26.7890075 L7.75276968,26.7890075 L11.4640233,19.0560981 L8.44688047,12.8973881 L1.72408163,26.7890075 Z"/></g></g></defs></g><style data-styled="true" data-styled-version="5.3.11">.kTUKTE{stroke:#555555;stroke-width:0.6px;fill:#ffffff;}/*!sc*/
data-styled.g24[id="sc-ikkxIA"]{content:"kTUKTE,"}/*!sc*/
.ceTgQa{cursor:pointer;}/*!sc*/
data-styled.g25[id="sc-dAbbOL"]{content:"ceTgQa,"}/*!sc*/
.eldnFl{stroke:#555;background-color:#555;stroke-width:1px;}/*!sc*/
data-styled.g26[id="sc-feUZmu"]{content:"eldnFl,"}/*!sc*/
.VmUIf{stroke-width:0;stroke:none;fill:#f2f3f3;}/*!sc*/
data-styled.g27[id="sc-fUnMCh"]{content:"VmUIf,"}/*!sc*/
.iEtHmm{font-size:10px;line-height:12.5;stroke:none;}/*!sc*/
data-styled.g28[id="sc-hzhJZQ"]{content:"iEtHmm,"}/*!sc*/
.lpuJjw{font-weight:400;font-size:14px;line-height:16.5;font-family:Amazon Ember,Arial,Roboto,Arial,sans-serif;text-shadow:none;}/*!sc*/
data-styled.g53[id="sc-bbSZdi"]{content:"lpuJjw,"}/*!sc*/
.cnxUso{fill:var(--color-text-form-secondary-smwr7a,#687078);}/*!sc*/
data-styled.g54[id="sc-fBWQRz"]{content:"cnxUso,"}/*!sc*/
.ddMZyx{font-weight:400;font-size:12px;line-height:16px;font-family:Amazon Ember,Arial,Roboto,Arial,sans-serif;text-shadow:none;fill:var(--color-text-button-primary-default-h1el7o,#16191f);}/*!sc*/
data-styled.g55[id="sc-hknOHE"]{content:"ddMZyx,"}/*!sc*/
.cEWWbE{fill:#fff9cc;stroke:var(--color-text-form-secondary-smwr7a,#687078);stroke-width:0.6px;}/*!sc*/
data-styled.g56[id="sc-uVWWZ"]{content:"cEWWbE,"}/*!sc*/
.cIxJdF{fill:#fff9cc;stroke:var(--color-text-form-secondary-smwr7a,#687078);stroke-width:0.6px;}/*!sc*/
data-styled.g57[id="sc-hCPjZK"]{content:"cIxJdF,"}/*!sc*/
.dBHRPJ{stroke:var(--color-border-control-default-9558cz,#687078);stroke-width:1px;fill:var(--color-background-container-content-yrbxur,#ffffff);opacity:0.5;}/*!sc*/
.node &gt; .new-look-state-node.has-errors &gt; .bounding-box &gt; .sc-Nxspf{stroke:var(--color-border-status-error-japsx0,#d13212);fill:var(--color-background-status-error-wgh5bg,#fdf3f1);}/*!sc*/
.selected &gt; .node &gt; .new-look-state-node &gt; .bounding-box &gt; .sc-Nxspf{stroke:var(--color-border-status-info-g4ewkk,#0073bb);fill:var(--color-background-status-info-79eqx5,#f1faff);}/*!sc*/
.selected &gt; .node &gt; .new-look-state-node.has-errors &gt; .bounding-box &gt; .sc-Nxspf{stroke:var(--color-border-status-error-japsx0,#d13212);fill:#fde0da;}/*!sc*/
data-styled.g58[id="sc-Nxspf"]{content:"dBHRPJ,"}/*!sc*/
</style><style>
.new-look-state-node &gt; rect:first-of-type {
  stroke: #687078;
  stroke-width: 1px;
  fill: #FFFFFF;
}

.new-look-state-node .error-icon circle {
 stroke-linejoin: round;
}

.new-look-state-node .error-icon circle, .new-look-state-node .error-icon path {
 stroke: var(--color-border-status-error-japsx0, #d13212);
 fill: none;
 stroke-width: 2px;
}

.new-look-state-node.has-errors &gt; rect:first-of-type {
 stroke: var(--color-border-status-error-japsx0, #d13212);
 fill: var(--color-background-status-error-wgh5bg, #fdf3f1);
}

.new-look-state-node.has-errors &gt; .bounding-box &gt; .new-look-state-node-sub &gt; rect {
  stroke: var(--color-border-status-error-japsx0, #d13212);
  fill: var(--color-background-status-error-wgh5bg, #fdf3f1);
}

.new-look-state-node .handle path {
  stroke: var(--color-border-dropdown-item-hover-38gqzc, #879596);
  stroke-width: 1px;
  fill: none;
}

.new-look-state-node {
  font-weight: 400;
  font-family: Amazon Ember, Arial, Roboto, Arial, sans-serif;
  text-shadow: none;
}

.new-look-state-node .line1 {
  fill: #687078;
  font-size: 12px;
}

.new-look-state-node .line2 {
  fill: #16191f;
}

.selected.node &gt; .new-look-state-node &gt; rect,
.selected.node &gt; .new-look-state-node &gt; .new-look-state-node &gt; rect,
.selected.node &gt; .new-look-state-node &gt; .bounding-box &gt; rect,
.selected.node &gt; .new-look-state-node.has-errors &gt; rect,
.selected.node &gt; .new-look-state-node.has-errors &gt; .bounding-box &gt; rect,
.selected.node &gt; .new-look-state-node.has-errors &gt; .new-look-state-node &gt; rect,
.selected.node &gt; .new-look-state-node &gt; .bounding-box &gt; .new-look-state-node-sub &gt; rect
 {
  stroke: var(--color-border-status-info-g4ewkk, #0073bb);
  fill: var(--color-background-status-info-79eqx5, #f1faff);
  stroke-width: 1px;
}

.new-look-state-node-sub .item-source.not-specified {
  height: 15px;
  color: #687078;
  font-family: "Amazon Ember";
  font-size: 12px;
  letter-spacing: 0;
  line-height: 16px;
  font-weight: 400;
}
.new-look-state-node-sub .item-source .item-source_name{
  font-weight: 600;
}
.new-look-state-node-sub .item-source.not-specified .item-source_name{
  font-weight: 400;
}

.new-look-state-node-sub .item-source.not-specified {
  font-style: italic;
}

.new-look-state-node-sub &gt; rect,
.new-look-state-node &gt; .bounding-box &gt; rect {
  stroke: var(--color-border-control-default-9558cz, #687078);
  fill: #ffffff;
}

.new-look-graph .drag-source {
  opacity: 0.2;
}

.new-look-graph .edge, .new-look-graph path.starting-connection {
  stroke-width: 1px;
  stroke: var(--color-text-form-secondary-smwr7a, #687078);
  marker-end: url(#large-arrowhead);
}

.new-look-graph .edge-label {
  cursor: pointer;
}

.new-look-graph .edge-label rect {
  stroke-width: 1px;
  stroke: var(--color-border-control-default-9558cz, #687078);
  fill: #fafafa;
}

.new-look-graph .edge-label.selected rect {
  stroke: var(--color-border-status-info-g4ewkk, #0073bb);
  fill: var(--color-background-status-info-79eqx5, #f1faff);
  stroke-width: 0.6px;
}



.new-look-graph .edge-label .label {
  fill: var(--color-text-form-secondary-smwr7a, #687078);
  font-family: Amazon Ember, Arial, Roboto, Arial, sans-serif;
}

/* centering the shape text */
@-moz-document url-prefix() {
  .new-look-graph .shape + text,
  .new-look-graph .edge-label text {
    transform: translateY(3.5px);
  }
}

.new-look-graph .edge path {
  marker-end: url(#large-arrowhead) !important;
}

.new-look-graph .edge.selected path{
  stroke: var(--color-border-status-info-g4ewkk, #0073bb);
  stroke-width: 1.1px;
}

.new-look-graph .edge.dragging-over path, .new-look-graph  g.dragging-over .starting-connection {
  stroke: #5C86FF;
  stroke-width: 2px;
}

.new-look-graph .edge.dragging-over path, .new-look-graph .dragging-over path.starting-connection {
  marker-end: url(#large-highlighted-arrowhead) !important;
}

.new-look-graph .edge.dragging-over .edge-label text {
  fill: #5C86FF;
}

#large-highlighted-arrowhead {
  fill: #5C86FF;
}

#large-highlighted-arrowhead path {
  stroke: none;
}

.new-look-graph .edge.drop-not-supported path, g.drop-not-supported .starting-connection {
  stroke: red;
}

.new-look-graph .edge.drop-not-supported .edge-label text {
  fill: red;
}

.new-look-graph .edge.drop-not-supported path {
  marker-end: url(#large-error-arrowhead) !important;
}

#large-error-arrowhead {
  fill: red;
}

.node-container * &gt; .icon  {
  &gt; rect {
    fill: #fafafa;
  }
  &gt; line {
    stroke: #d5dbdb;
  }
}


.node.Placeholder.dragging-over rect {
  stroke: var(--color-border-status-info-g4ewkk, #0073bb);
  fill: var(--color-background-status-info-79eqx5, #f1faff);
  stroke-width: 2px;
}

.node.Placeholder.dragging-over .label {
  fill: var(--color-text-status-info-7871xj, #0073bb);
}

g.Placeholder rect {
  stroke-dasharray: 5 4;
  stroke: var(--color-border-dropdown-item-hover-38gqzc, #879596);
  fill: #ffffff;
  stroke-width: 1px;
}

g.Placeholder .label {
  font-style: italic;
  fill: var(--color-text-input-placeholder-zd3pu1, #687078);
}

.node.Placeholder.drop-not-supported rect {
  stroke: red;
}

.node.Placeholder.drop-not-supported .label {
  fill: red;
}
</style><style>.line2 { font-size: 14px }</style></svg>